<svg width="300" height="80" viewBox="0 0 300 80" fill="none" xmlns="http://www.w3.org/2000/svg">
<rect width="300" height="80" fill="white"/>
<path d="M97.5014 53C96.7974 51.9867 96.1307 51.0373 95.5014 50.152C94.8827 49.256 94.2747 48.376 93.6774 47.512L90.6694 43.208H89.1974V39.08H90.6054L93.2934 35.56C93.9334 34.728 94.568 33.9013 95.1974 33.08C95.8267 32.248 96.5574 31.2827 97.3894 30.184H103.453C102.461 31.3893 101.491 32.5733 100.541 33.736C99.6027 34.8987 98.6587 36.072 97.7094 37.256L94.0934 41.72L93.9974 39.4L98.0134 44.952C98.632 45.8053 99.2934 46.7227 99.9974 47.704C100.712 48.6853 101.405 49.64 102.077 50.568C102.749 51.496 103.341 52.3067 103.853 53H97.5014ZM84.3654 53C84.3654 51.7733 84.3654 50.584 84.3654 49.432C84.3654 48.28 84.3654 46.9893 84.3654 45.56V37.816C84.3654 36.344 84.3654 35.016 84.3654 33.832C84.3654 32.648 84.3654 31.432 84.3654 30.184H89.6134C89.6134 31.432 89.6134 32.648 89.6134 33.832C89.6134 35.016 89.6134 36.344 89.6134 37.816V45.56C89.6134 46.9893 89.6134 48.28 89.6134 49.432C89.6134 50.584 89.6134 51.7733 89.6134 53H84.3654ZM106.517 53C106.517 51.8587 106.517 50.7547 106.517 49.688C106.517 48.6107 106.517 47.4107 106.517 46.088V44.488C106.517 43.432 106.517 42.488 106.517 41.656C106.517 40.8133 106.517 40.024 106.517 39.288C106.517 38.5413 106.517 37.7893 106.517 37.032L111.301 36.888C111.301 37.656 111.301 38.4187 111.301 39.176C111.301 39.9333 111.301 40.7387 111.301 41.592C111.301 42.4453 111.301 43.4107 111.301 44.488V46.088C111.301 47.4107 111.301 48.6107 111.301 49.688C111.301 50.7547 111.301 51.8587 111.301 53H106.517ZM108.869 34.568C107.984 34.568 107.274 34.36 106.741 33.944C106.218 33.5173 105.957 32.8293 105.957 31.88C105.957 31.0267 106.218 30.376 106.741 29.928C107.274 29.4693 107.994 29.24 108.901 29.24C109.808 29.24 110.517 29.48 111.029 29.96C111.552 30.4293 111.813 31.0693 111.813 31.88C111.813 32.8293 111.552 33.5173 111.029 33.944C110.506 34.36 109.786 34.568 108.869 34.568ZM122.159 53.432C120.975 53.432 119.962 53.256 119.119 52.904C118.287 52.5413 117.647 51.9653 117.199 51.176C116.762 50.3867 116.543 49.3467 116.543 48.056C116.543 47.3627 116.543 46.6533 116.543 45.928C116.543 45.192 116.543 44.424 116.543 43.624C116.543 42.824 116.543 41.9813 116.543 41.096C116.543 40.2107 116.543 39.256 116.543 38.232C116.543 37.0267 116.543 35.9227 116.543 34.92C116.543 33.9173 116.543 32.8933 116.543 31.848L121.247 31C121.247 31.832 121.247 32.6213 121.247 33.368C121.247 34.104 121.247 34.8667 121.247 35.656C121.247 36.4347 121.247 37.2933 121.247 38.232V46.552C121.247 47.5227 121.423 48.264 121.775 48.776C122.138 49.2773 122.725 49.528 123.535 49.528C123.877 49.528 124.25 49.4693 124.655 49.352C125.061 49.224 125.45 49.0267 125.823 48.76L126.095 52.632C125.818 52.8027 125.466 52.9467 125.039 53.064C124.613 53.1813 124.149 53.272 123.647 53.336C123.146 53.4 122.65 53.432 122.159 53.432ZM113.951 40.632V37.032H126.015V40.632C125.013 40.632 124.005 40.632 122.991 40.632C121.989 40.632 121.018 40.632 120.079 40.632H117.951H113.951Z" fill="black"/>
<path d="M136.395 53.416C135.445 53.416 134.469 53.336 133.467 53.176C132.475 53.0267 131.541 52.8293 130.667 52.584C129.803 52.3387 129.099 52.0827 128.555 51.816L128.939 47.192C129.675 47.608 130.443 47.9653 131.243 48.264C132.053 48.552 132.859 48.776 133.659 48.936C134.469 49.096 135.243 49.176 135.979 49.176C136.715 49.176 137.355 49.0853 137.899 48.904C138.443 48.7227 138.864 48.4507 139.163 48.088C139.461 47.7147 139.611 47.2347 139.611 46.648C139.611 46.0507 139.413 45.56 139.019 45.176C138.635 44.7813 138.08 44.44 137.355 44.152C136.629 43.8533 135.765 43.56 134.763 43.272C133.376 42.8667 132.192 42.3973 131.211 41.864C130.229 41.32 129.477 40.6267 128.955 39.784C128.443 38.9307 128.187 37.8373 128.187 36.504C128.187 35.1707 128.48 33.9973 129.067 32.984C129.653 31.96 130.539 31.16 131.723 30.584C132.907 30.008 134.405 29.72 136.219 29.72C136.933 29.72 137.648 29.768 138.363 29.864C139.077 29.9493 139.771 30.0667 140.443 30.216C141.125 30.3653 141.755 30.536 142.331 30.728C142.907 30.92 143.408 31.1227 143.835 31.336L143.435 35.976C142.752 35.5493 142.043 35.192 141.307 34.904C140.571 34.616 139.851 34.3973 139.147 34.248C138.443 34.0987 137.803 34.024 137.227 34.024C136.576 34.024 135.984 34.1093 135.451 34.28C134.928 34.4507 134.512 34.712 134.203 35.064C133.893 35.416 133.739 35.8587 133.739 36.392C133.739 36.9147 133.883 37.3573 134.171 37.72C134.469 38.072 134.923 38.3867 135.531 38.664C136.149 38.9307 136.944 39.208 137.915 39.496C139.739 40.04 141.179 40.6107 142.235 41.208C143.291 41.7947 144.037 42.504 144.475 43.336C144.923 44.168 145.147 45.2133 145.147 46.472C145.147 47.8693 144.843 49.0907 144.235 50.136C143.627 51.1707 142.677 51.976 141.387 52.552C140.096 53.128 138.432 53.416 136.395 53.416ZM155.693 53.352C153.88 53.352 152.344 52.9947 151.085 52.28C149.827 51.5547 148.867 50.568 148.205 49.32C147.544 48.072 147.213 46.648 147.213 45.048C147.213 43.4373 147.517 41.9973 148.125 40.728C148.744 39.448 149.656 38.4453 150.861 37.72C152.077 36.984 153.587 36.616 155.389 36.616C156.029 36.616 156.659 36.664 157.277 36.76C157.907 36.856 158.499 36.9893 159.053 37.16C159.608 37.3307 160.104 37.5333 160.541 37.768L160.189 41.896C159.581 41.544 159.021 41.2827 158.509 41.112C158.008 40.9307 157.555 40.8133 157.149 40.76C156.744 40.696 156.381 40.664 156.061 40.664C154.856 40.664 153.891 41.048 153.165 41.816C152.451 42.5733 152.093 43.6027 152.093 44.904C152.093 45.7893 152.269 46.5733 152.621 47.256C152.984 47.928 153.512 48.456 154.205 48.84C154.909 49.224 155.773 49.416 156.797 49.416C157.192 49.416 157.587 49.3787 157.981 49.304C158.376 49.2293 158.765 49.1173 159.149 48.968C159.544 48.8187 159.917 48.6267 160.269 48.392L160.509 52.52C160.147 52.68 159.725 52.824 159.245 52.952C158.776 53.0693 158.248 53.1653 157.661 53.24C157.075 53.3147 156.419 53.352 155.693 53.352ZM192.653 53.432C191.053 53.432 189.843 52.9573 189.021 52.008C188.2 51.0587 187.789 49.6453 187.789 47.768C187.789 47.0533 187.789 46.4347 187.789 45.912C187.789 45.3893 187.789 44.8507 187.789 44.296C187.789 43.24 187.789 42.312 187.789 41.512C187.789 40.7013 187.789 39.944 187.789 39.24C187.789 38.5253 187.789 37.7893 187.789 37.032L192.573 36.888C192.573 38.0293 192.573 39.1547 192.573 40.264C192.573 41.3627 192.573 42.504 192.573 43.688V46.344C192.573 47.272 192.728 47.976 193.037 48.456C193.347 48.9253 193.901 49.16 194.701 49.16C195.139 49.16 195.544 49.0693 195.917 48.888C196.301 48.696 196.648 48.4453 196.957 48.136C197.267 47.816 197.549 47.464 197.805 47.08V43.688C197.805 42.504 197.805 41.384 197.805 40.328C197.805 39.2613 197.805 38.1627 197.805 37.032H202.589C202.589 38.1627 202.589 39.2827 202.589 40.392C202.589 41.5013 202.589 42.8027 202.589 44.296V46.088C202.589 47.4107 202.589 48.6107 202.589 49.688C202.589 50.7547 202.589 51.8587 202.589 53H198.573L198.365 50.456H197.949C197.597 50.968 197.165 51.4533 196.653 51.912C196.152 52.36 195.565 52.7227 194.893 53C194.232 53.288 193.485 53.432 192.653 53.432ZM213.159 53.432C211.975 53.432 210.962 53.256 210.119 52.904C209.287 52.5413 208.647 51.9653 208.199 51.176C207.762 50.3867 207.543 49.3467 207.543 48.056C207.543 47.3627 207.543 46.6533 207.543 45.928C207.543 45.192 207.543 44.424 207.543 43.624C207.543 42.824 207.543 41.9813 207.543 41.096C207.543 40.2107 207.543 39.256 207.543 38.232C207.543 37.0267 207.543 35.9227 207.543 34.92C207.543 33.9173 207.543 32.8933 207.543 31.848L212.247 31C212.247 31.832 212.247 32.6213 212.247 33.368C212.247 34.104 212.247 34.8667 212.247 35.656C212.247 36.4347 212.247 37.2933 212.247 38.232V46.552C212.247 47.5227 212.423 48.264 212.775 48.776C213.138 49.2773 213.725 49.528 214.535 49.528C214.877 49.528 215.25 49.4693 215.655 49.352C216.061 49.224 216.45 49.0267 216.823 48.76L217.095 52.632C216.818 52.8027 216.466 52.9467 216.039 53.064C215.613 53.1813 215.149 53.272 214.647 53.336C214.146 53.4 213.65 53.432 213.159 53.432ZM204.951 40.632V37.032H217.015V40.632C216.013 40.632 215.005 40.632 213.991 40.632C212.989 40.632 212.018 40.632 211.079 40.632H208.951H204.951Z" fill="#2563EB"/>
<path d="M173.971 36C179.56 36 183.941 40.1399 183.941 45.0703C183.941 50.0006 179.56 54.1406 173.971 54.1406C168.382 54.1406 164 50.0006 164 45.0703C164 40.1399 168.382 36 173.971 36Z" stroke="#FACC15" stroke-width="2"/>
<line y1="-1" x2="8.81249" y2="-1" transform="matrix(0.713826 0.700323 -0.70446 0.709744 178.709 52.8284)" stroke="#FACC15" stroke-width="2"/>
</svg>
